<svg width="41" height="43" viewBox="0 0 41 43" fill="none" xmlns="http://www.w3.org/2000/svg">
<ellipse cx="1.6129" cy="1.69355" rx="1.6129" ry="1.69355" fill="#DF3E3E"/>
<ellipse cx="5.80645" cy="1.69355" rx="1.6129" ry="1.69355" fill="#DF3E3E"/>
<ellipse cx="10" cy="1.69355" rx="1.6129" ry="1.69355" fill="#DF3E3E"/>
<ellipse cx="14.1935" cy="1.69355" rx="1.6129" ry="1.69355" fill="#DF3E3E"/>
<ellipse cx="18.3871" cy="1.69355" rx="1.6129" ry="1.69355" fill="#DF3E3E"/>
<ellipse cx="1.6129" cy="6.09675" rx="1.6129" ry="1.69355" fill="#DF3E3E"/>
<ellipse cx="5.80645" cy="6.09675" rx="1.6129" ry="1.69355" fill="#DF3E3E"/>
<ellipse cx="10" cy="6.09675" rx="1.6129" ry="1.69355" fill="#DF3E3E"/>
<ellipse cx="14.1935" cy="6.09675" rx="1.6129" ry="1.69355" fill="#DF3E3E"/>
<ellipse cx="18.3871" cy="6.09675" rx="1.6129" ry="1.69355" fill="#DF3E3E"/>
<ellipse cx="1.6129" cy="10.5" rx="1.6129" ry="1.69355" fill="#DF3E3E"/>
<ellipse cx="5.80645" cy="10.5" rx="1.6129" ry="1.69355" fill="#DF3E3E"/>
<ellipse cx="10" cy="10.5" rx="1.6129" ry="1.69355" fill="#DF3E3E"/>
<ellipse cx="14.1935" cy="10.5" rx="1.6129" ry="1.69355" fill="#DF3E3E"/>
<ellipse cx="18.3871" cy="10.5" rx="1.6129" ry="1.69355" fill="#DF3E3E"/>
<ellipse cx="1.6129" cy="14.9032" rx="1.6129" ry="1.69355" fill="#DF3E3E"/>
<ellipse cx="5.80645" cy="14.9032" rx="1.6129" ry="1.69355" fill="#DF3E3E"/>
<ellipse cx="10" cy="14.9032" rx="1.6129" ry="1.69355" fill="#DF3E3E"/>
<ellipse cx="14.1935" cy="14.9032" rx="1.6129" ry="1.69355" fill="#DF3E3E"/>
<ellipse cx="18.3871" cy="14.9032" rx="1.6129" ry="1.69355" fill="#DF3E3E"/>
<ellipse cx="1.6129" cy="19.3065" rx="1.6129" ry="1.69355" fill="#DF3E3E"/>
<ellipse cx="5.80645" cy="19.3065" rx="1.6129" ry="1.69355" fill="#DF3E3E"/>
<ellipse cx="10" cy="19.3065" rx="1.6129" ry="1.69355" fill="#DF3E3E"/>
<ellipse cx="14.1935" cy="19.3065" rx="1.6129" ry="1.69355" fill="#DF3E3E"/>
<ellipse cx="18.3871" cy="19.3065" rx="1.6129" ry="1.69355" fill="#DF3E3E"/>
<ellipse cx="22.6129" cy="1.69355" rx="1.6129" ry="1.69355" fill="#DF3E3E"/>
<ellipse cx="26.8064" cy="1.69355" rx="1.6129" ry="1.69355" fill="#DF3E3E"/>
<ellipse cx="31" cy="1.69355" rx="1.6129" ry="1.69355" fill="#DF3E3E"/>
<ellipse cx="35.1935" cy="1.69355" rx="1.6129" ry="1.69355" fill="#DF3E3E"/>
<ellipse cx="39.3871" cy="1.69355" rx="1.6129" ry="1.69355" fill="#DF3E3E"/>
<ellipse cx="22.6129" cy="6.09675" rx="1.6129" ry="1.69355" fill="#DF3E3E"/>
<ellipse cx="26.8064" cy="6.09675" rx="1.6129" ry="1.69355" fill="#DF3E3E"/>
<ellipse cx="31" cy="6.09675" rx="1.6129" ry="1.69355" fill="#DF3E3E"/>
<ellipse cx="35.1935" cy="6.09675" rx="1.6129" ry="1.69355" fill="#DF3E3E"/>
<ellipse cx="39.3871" cy="6.09675" rx="1.6129" ry="1.69355" fill="#DF3E3E"/>
<ellipse cx="22.6129" cy="10.5" rx="1.6129" ry="1.69355" fill="#DF3E3E"/>
<ellipse cx="26.8064" cy="10.5" rx="1.6129" ry="1.69355" fill="#DF3E3E"/>
<ellipse cx="31" cy="10.5" rx="1.6129" ry="1.69355" fill="#DF3E3E"/>
<ellipse cx="35.1935" cy="10.5" rx="1.6129" ry="1.69355" fill="#DF3E3E"/>
<ellipse cx="39.3871" cy="10.5" rx="1.6129" ry="1.69355" fill="#DF3E3E"/>
<ellipse cx="22.6129" cy="14.9032" rx="1.6129" ry="1.69355" fill="#DF3E3E"/>
<ellipse cx="26.8064" cy="14.9032" rx="1.6129" ry="1.69355" fill="#DF3E3E"/>
<ellipse cx="31" cy="14.9032" rx="1.6129" ry="1.69355" fill="#DF3E3E"/>
<ellipse cx="35.1935" cy="14.9032" rx="1.6129" ry="1.69355" fill="#DF3E3E"/>
<ellipse cx="39.3871" cy="14.9032" rx="1.6129" ry="1.69355" fill="#DF3E3E"/>
<ellipse cx="22.6129" cy="19.3065" rx="1.6129" ry="1.69355" fill="#DF3E3E"/>
<ellipse cx="26.8064" cy="19.3065" rx="1.6129" ry="1.69355" fill="#DF3E3E"/>
<ellipse cx="31" cy="19.3065" rx="1.6129" ry="1.69355" fill="#DF3E3E"/>
<ellipse cx="35.1935" cy="19.3065" rx="1.6129" ry="1.69355" fill="#DF3E3E"/>
<ellipse cx="39.3871" cy="19.3065" rx="1.6129" ry="1.69355" fill="#DF3E3E"/>
<ellipse cx="22.6129" cy="23.6935" rx="1.6129" ry="1.69355" fill="#DF3E3E"/>
<ellipse cx="26.8064" cy="23.6935" rx="1.6129" ry="1.69355" fill="#DF3E3E"/>
<ellipse cx="31" cy="23.6935" rx="1.6129" ry="1.69355" fill="#DF3E3E"/>
<ellipse cx="35.1935" cy="23.6935" rx="1.6129" ry="1.69355" fill="#DF3E3E"/>
<ellipse cx="39.3871" cy="23.6935" rx="1.6129" ry="1.69355" fill="#DF3E3E"/>
<ellipse cx="22.6129" cy="28.0967" rx="1.6129" ry="1.69355" fill="#DF3E3E"/>
<ellipse cx="26.8064" cy="28.0967" rx="1.6129" ry="1.69355" fill="#DF3E3E"/>
<ellipse cx="31" cy="28.0967" rx="1.6129" ry="1.69355" fill="#DF3E3E"/>
<ellipse cx="35.1935" cy="28.0967" rx="1.6129" ry="1.69355" fill="#DF3E3E"/>
<ellipse cx="39.3871" cy="28.0967" rx="1.6129" ry="1.69355" fill="#DF3E3E"/>
<ellipse cx="22.6129" cy="32.5" rx="1.6129" ry="1.69355" fill="#DF3E3E"/>
<ellipse cx="26.8064" cy="32.5" rx="1.6129" ry="1.69355" fill="#DF3E3E"/>
<ellipse cx="31" cy="32.5" rx="1.6129" ry="1.69355" fill="#DF3E3E"/>
<ellipse cx="35.1935" cy="32.5" rx="1.6129" ry="1.69355" fill="#DF3E3E"/>
<ellipse cx="39.3871" cy="32.5" rx="1.6129" ry="1.69355" fill="#DF3E3E"/>
<ellipse cx="22.6129" cy="36.9032" rx="1.6129" ry="1.69355" fill="#DF3E3E"/>
<ellipse cx="26.8064" cy="36.9032" rx="1.6129" ry="1.69355" fill="#DF3E3E"/>
<ellipse cx="31" cy="36.9032" rx="1.6129" ry="1.69355" fill="#DF3E3E"/>
<ellipse cx="35.1935" cy="36.9032" rx="1.6129" ry="1.69355" fill="#DF3E3E"/>
<ellipse cx="39.3871" cy="36.9032" rx="1.6129" ry="1.69355" fill="#DF3E3E"/>
<ellipse cx="22.6129" cy="41.3065" rx="1.6129" ry="1.69355" fill="#DF3E3E"/>
<ellipse cx="26.8064" cy="41.3065" rx="1.6129" ry="1.69355" fill="#DF3E3E"/>
<ellipse cx="31" cy="41.3065" rx="1.6129" ry="1.69355" fill="#DF3E3E"/>
<ellipse cx="35.1935" cy="41.3065" rx="1.6129" ry="1.69355" fill="#DF3E3E"/>
<ellipse cx="39.3871" cy="41.3065" rx="1.6129" ry="1.69355" fill="#DF3E3E"/>
<ellipse cx="1.6129" cy="23.6935" rx="1.6129" ry="1.69355" fill="#DF3E3E"/>
<ellipse cx="5.80645" cy="23.6935" rx="1.6129" ry="1.69355" fill="#DF3E3E"/>
<ellipse cx="10" cy="23.6935" rx="1.6129" ry="1.69355" fill="#DF3E3E"/>
<ellipse cx="14.1935" cy="23.6935" rx="1.6129" ry="1.69355" fill="#DF3E3E"/>
<ellipse cx="18.3871" cy="23.6935" rx="1.6129" ry="1.69355" fill="#DF3E3E"/>
<ellipse cx="1.6129" cy="28.0967" rx="1.6129" ry="1.69355" fill="#DF3E3E"/>
<ellipse cx="5.80645" cy="28.0967" rx="1.6129" ry="1.69355" fill="#DF3E3E"/>
<ellipse cx="10" cy="28.0967" rx="1.6129" ry="1.69355" fill="#DF3E3E"/>
<ellipse cx="14.1935" cy="28.0967" rx="1.6129" ry="1.69355" fill="#DF3E3E"/>
<ellipse cx="18.3871" cy="28.0967" rx="1.6129" ry="1.69355" fill="#DF3E3E"/>
<ellipse cx="1.6129" cy="32.5" rx="1.6129" ry="1.69355" fill="#DF3E3E"/>
<ellipse cx="5.80645" cy="32.5" rx="1.6129" ry="1.69355" fill="#DF3E3E"/>
<ellipse cx="10" cy="32.5" rx="1.6129" ry="1.69355" fill="#DF3E3E"/>
<ellipse cx="14.1935" cy="32.5" rx="1.6129" ry="1.69355" fill="#DF3E3E"/>
<ellipse cx="18.3871" cy="32.5" rx="1.6129" ry="1.69355" fill="#DF3E3E"/>
<ellipse cx="1.6129" cy="36.9032" rx="1.6129" ry="1.69355" fill="#DF3E3E"/>
<ellipse cx="5.80645" cy="36.9032" rx="1.6129" ry="1.69355" fill="#DF3E3E"/>
<ellipse cx="10" cy="36.9032" rx="1.6129" ry="1.69355" fill="#DF3E3E"/>
<ellipse cx="14.1935" cy="36.9032" rx="1.6129" ry="1.69355" fill="#DF3E3E"/>
<ellipse cx="18.3871" cy="36.9032" rx="1.6129" ry="1.69355" fill="#DF3E3E"/>
<ellipse cx="1.6129" cy="41.3065" rx="1.6129" ry="1.69355" fill="#DF3E3E"/>
<ellipse cx="5.80645" cy="41.3065" rx="1.6129" ry="1.69355" fill="#DF3E3E"/>
<ellipse cx="10" cy="41.3065" rx="1.6129" ry="1.69355" fill="#DF3E3E"/>
<ellipse cx="14.1935" cy="41.3065" rx="1.6129" ry="1.69355" fill="#DF3E3E"/>
<ellipse cx="18.3871" cy="41.3065" rx="1.6129" ry="1.69355" fill="#DF3E3E"/>
</svg>
